<svg xmlns="http://www.w3.org/2000/svg" xmlns:xlink="http://www.w3.org/1999/xlink" width="485" zoomAndPan="magnify" viewBox="0 0 363.75 74.999997" height="100" preserveAspectRatio="xMidYMid meet" version="1.2"><defs><clipPath id="82ea75a110"><path d="M 136.539062 30.847656 L 226.472656 30.847656 L 226.472656 66.824219 L 136.539062 66.824219 Z M 136.539062 30.847656 "/></clipPath><clipPath id="0ff84f7ecb"><path d="M 154.527344 30.847656 L 208.339844 30.847656 C 218.273438 30.847656 226.328125 38.902344 226.328125 48.835938 C 226.328125 58.769531 218.273438 66.824219 208.339844 66.824219 L 154.527344 66.824219 C 144.59375 66.824219 136.539062 58.769531 136.539062 48.835938 C 136.539062 38.902344 144.59375 30.847656 154.527344 30.847656 Z M 154.527344 30.847656 "/></clipPath></defs><g id="6a387e09d7"><g clip-rule="nonzero" clip-path="url(#82ea75a110)"><g clip-rule="nonzero" clip-path="url(#0ff84f7ecb)"><path style="fill:none;stroke-width:12;stroke-linecap:butt;stroke-linejoin:miter;stroke:#000000;stroke-opacity:1;stroke-miterlimit:4;" d="M 24.110873 0.000810582 L 96.237404 0.000810582 C 109.551701 0.000810582 120.347644 10.791518 120.347644 24.111051 C 120.347644 37.425349 109.551701 48.221291 96.237404 48.221291 L 24.110873 48.221291 C 10.796576 48.221291 0.000633103 37.425349 0.000633103 24.111051 C 0.000633103 10.791518 10.796576 0.000810582 24.110873 0.000810582 Z M 24.110873 0.000810582 " transform="matrix(0.746085,0,0,0.746085,136.53859,30.847051)"/></g></g><g style="fill:#000000;fill-opacity:1;"><g transform="translate(4.053991, 64.595585)"><path style="stroke:none" d="M 40.328125 -13.640625 L 11.890625 -13.640625 L 5.765625 0 L 0.140625 0 L 23.484375 -51.0625 L 28.8125 -51.0625 L 52.15625 0 L 46.46875 0 Z M 38.359375 -18.015625 L 26.109375 -45.4375 L 13.859375 -18.015625 Z M 38.359375 -18.015625 "/></g></g><g style="fill:#000000;fill-opacity:1;"><g transform="translate(56.353533, 64.595585)"><path style="stroke:none" d="M 41.796875 -38.359375 L 41.796875 0 L 36.828125 0 L 36.828125 -7 C 35.472656 -4.664062 33.601562 -2.851562 31.21875 -1.5625 C 28.832031 -0.28125 26.109375 0.359375 23.046875 0.359375 C 18.035156 0.359375 14.082031 -1.035156 11.1875 -3.828125 C 8.300781 -6.617188 6.859375 -10.71875 6.859375 -16.125 L 6.859375 -38.359375 L 12.03125 -38.359375 L 12.03125 -16.625 C 12.03125 -12.59375 13.023438 -9.53125 15.015625 -7.4375 C 17.015625 -5.34375 19.863281 -4.296875 23.5625 -4.296875 C 27.59375 -4.296875 30.773438 -5.523438 33.109375 -7.984375 C 35.441406 -10.441406 36.609375 -13.859375 36.609375 -18.234375 L 36.609375 -38.359375 Z M 41.796875 -38.359375 "/></g></g><g style="fill:#000000;fill-opacity:1;"><g transform="translate(105.443627, 64.595585)"><path style="stroke:none" d="M 27.421875 -2.328125 C 26.453125 -1.453125 25.25 -0.785156 23.8125 -0.328125 C 22.375 0.128906 20.878906 0.359375 19.328125 0.359375 C 15.734375 0.359375 12.960938 -0.609375 11.015625 -2.546875 C 9.066406 -4.492188 8.09375 -7.242188 8.09375 -10.796875 L 8.09375 -33.984375 L 1.234375 -33.984375 L 1.234375 -38.359375 L 8.09375 -38.359375 L 8.09375 -46.75 L 13.28125 -46.75 L 13.28125 -38.359375 L 24.9375 -38.359375 L 24.9375 -33.984375 L 13.28125 -33.984375 L 13.28125 -11.09375 C 13.28125 -8.800781 13.847656 -7.054688 14.984375 -5.859375 C 16.128906 -4.671875 17.769531 -4.078125 19.90625 -4.078125 C 20.976562 -4.078125 22.007812 -4.25 23 -4.59375 C 24 -4.9375 24.863281 -5.421875 25.59375 -6.046875 Z M 27.421875 -2.328125 "/></g></g><g style="fill:#000000;fill-opacity:1;"><g transform="translate(222.200681, 64.595585)"><path style="stroke:none" d="M 44.421875 -4.671875 L 44.421875 0 L 8.3125 0 L 8.3125 -51.0625 L 43.328125 -51.0625 L 43.328125 -46.390625 L 13.71875 -46.390625 L 13.71875 -28.234375 L 40.109375 -28.234375 L 40.109375 -23.625 L 13.71875 -23.625 L 13.71875 -4.671875 Z M 44.421875 -4.671875 "/></g></g><g style="fill:#000000;fill-opacity:1;"><g transform="translate(270.998997, 64.595585)"><path style="stroke:none" d="M 42.234375 -54.125 L 42.234375 0 L 37.265625 0 L 37.265625 -7.578125 C 35.710938 -5.003906 33.660156 -3.035156 31.109375 -1.671875 C 28.554688 -0.316406 25.675781 0.359375 22.46875 0.359375 C 18.863281 0.359375 15.601562 -0.460938 12.6875 -2.109375 C 9.769531 -3.765625 7.484375 -6.078125 5.828125 -9.046875 C 4.179688 -12.015625 3.359375 -15.394531 3.359375 -19.1875 C 3.359375 -22.976562 4.179688 -26.351562 5.828125 -29.3125 C 7.484375 -32.28125 9.769531 -34.578125 12.6875 -36.203125 C 15.601562 -37.835938 18.863281 -38.65625 22.46875 -38.65625 C 25.570312 -38.65625 28.375 -38.007812 30.875 -36.71875 C 33.382812 -35.4375 35.441406 -33.554688 37.046875 -31.078125 L 37.046875 -54.125 Z M 22.90625 -4.234375 C 25.570312 -4.234375 27.988281 -4.851562 30.15625 -6.09375 C 32.320312 -7.332031 34.023438 -9.09375 35.265625 -11.375 C 36.503906 -13.664062 37.125 -16.269531 37.125 -19.1875 C 37.125 -22.101562 36.503906 -24.703125 35.265625 -26.984375 C 34.023438 -29.273438 32.320312 -31.039062 30.15625 -32.28125 C 27.988281 -33.519531 25.570312 -34.140625 22.90625 -34.140625 C 20.175781 -34.140625 17.726562 -33.519531 15.5625 -32.28125 C 13.40625 -31.039062 11.707031 -29.273438 10.46875 -26.984375 C 9.226562 -24.703125 8.609375 -22.101562 8.609375 -19.1875 C 8.609375 -16.269531 9.226562 -13.664062 10.46875 -11.375 C 11.707031 -9.09375 13.40625 -7.332031 15.5625 -6.09375 C 17.726562 -4.851562 20.175781 -4.234375 22.90625 -4.234375 Z M 22.90625 -4.234375 "/></g></g><g style="fill:#000000;fill-opacity:1;"><g transform="translate(320.453795, 64.595585)"><path style="stroke:none" d="M 20.640625 -38.65625 C 25.648438 -38.65625 29.488281 -37.398438 32.15625 -34.890625 C 34.832031 -32.390625 36.171875 -28.6875 36.171875 -23.78125 L 36.171875 0 L 31.21875 0 L 31.21875 -5.984375 C 30.050781 -3.984375 28.335938 -2.425781 26.078125 -1.3125 C 23.816406 -0.195312 21.128906 0.359375 18.015625 0.359375 C 13.734375 0.359375 10.328125 -0.660156 7.796875 -2.703125 C 5.273438 -4.742188 4.015625 -7.441406 4.015625 -10.796875 C 4.015625 -14.054688 5.191406 -16.679688 7.546875 -18.671875 C 9.910156 -20.660156 13.664062 -21.65625 18.8125 -21.65625 L 31 -21.65625 L 31 -24 C 31 -27.300781 30.070312 -29.816406 28.21875 -31.546875 C 26.375 -33.273438 23.675781 -34.140625 20.125 -34.140625 C 17.695312 -34.140625 15.363281 -33.738281 13.125 -32.9375 C 10.894531 -32.132812 8.972656 -31.023438 7.359375 -29.609375 L 5.03125 -33.484375 C 6.976562 -35.128906 9.3125 -36.398438 12.03125 -37.296875 C 14.757812 -38.203125 17.628906 -38.65625 20.640625 -38.65625 Z M 18.8125 -3.71875 C 21.726562 -3.71875 24.234375 -4.382812 26.328125 -5.71875 C 28.421875 -7.0625 29.976562 -9 31 -11.53125 L 31 -17.796875 L 18.96875 -17.796875 C 12.394531 -17.796875 9.109375 -15.507812 9.109375 -10.9375 C 9.109375 -8.695312 9.957031 -6.929688 11.65625 -5.640625 C 13.363281 -4.359375 15.75 -3.71875 18.8125 -3.71875 Z M 18.8125 -3.71875 "/></g></g></g></svg>