<svg xmlns="http://www.w3.org/2000/svg" xmlns:xlink="http://www.w3.org/1999/xlink" width="500" zoomAndPan="magnify" viewBox="0 0 375 374.999991" height="500" preserveAspectRatio="xMidYMid meet" version="1.2"><defs><clipPath id="c8a1ed9e05"><path d="M 127 11 L 248 11 L 248 233 L 127 233 Z M 127 11 "/></clipPath><clipPath id="3a230d71ab"><path d="M 0 183.304688 L 183.496094 -0.191406 L 374.945312 191.257812 L 191.449219 374.753906 Z M 0 183.304688 "/></clipPath><clipPath id="fa75250bfa"><path d="M 0 183.304688 L 183.496094 -0.191406 L 374.945312 191.257812 L 191.449219 374.753906 Z M 0 183.304688 "/></clipPath><clipPath id="727125c8a3"><path d="M 0 183.304688 L 183.496094 -0.191406 L 374.945312 191.257812 L 191.449219 374.753906 Z M 0 183.304688 "/></clipPath><clipPath id="0bdbc307ea"><path d="M 127 21 L 234 21 L 234 233 L 127 233 Z M 127 21 "/></clipPath><clipPath id="feae9b2a02"><path d="M 0 183.304688 L 183.496094 -0.191406 L 374.945312 191.257812 L 191.449219 374.753906 Z M 0 183.304688 "/></clipPath><clipPath id="9be8f5d98c"><path d="M 0 183.304688 L 183.496094 -0.191406 L 374.945312 191.257812 L 191.449219 374.753906 Z M 0 183.304688 "/></clipPath><clipPath id="2a6dcdc1b5"><path d="M 0 183.304688 L 183.496094 -0.191406 L 374.945312 191.257812 L 191.449219 374.753906 Z M 0 183.304688 "/></clipPath><clipPath id="ae6a014039"><path d="M 155 195 L 169 195 L 169 210 L 155 210 Z M 155 195 "/></clipPath><clipPath id="49ab4394c3"><path d="M 0 183.304688 L 183.496094 -0.191406 L 374.945312 191.257812 L 191.449219 374.753906 Z M 0 183.304688 "/></clipPath><clipPath id="b519921668"><path d="M 0 183.304688 L 183.496094 -0.191406 L 374.945312 191.257812 L 191.449219 374.753906 Z M 0 183.304688 "/></clipPath><clipPath id="a6cb32c392"><path d="M 0 183.304688 L 183.496094 -0.191406 L 374.945312 191.257812 L 191.449219 374.753906 Z M 0 183.304688 "/></clipPath><clipPath id="947938208c"><path d="M 142 137 L 162 137 L 162 190 L 142 190 Z M 142 137 "/></clipPath><clipPath id="cbadfd8764"><path d="M 0 183.304688 L 183.496094 -0.191406 L 374.945312 191.257812 L 191.449219 374.753906 Z M 0 183.304688 "/></clipPath><clipPath id="cf8831133d"><path d="M 0 183.304688 L 183.496094 -0.191406 L 374.945312 191.257812 L 191.449219 374.753906 Z M 0 183.304688 "/></clipPath><clipPath id="a598df00bc"><path d="M 0 183.304688 L 183.496094 -0.191406 L 374.945312 191.257812 L 191.449219 374.753906 Z M 0 183.304688 "/></clipPath><clipPath id="28239fca0a"><path d="M 159 223 L 216 223 L 216 253 L 159 253 Z M 159 223 "/></clipPath><clipPath id="5640ace152"><path d="M 0 183.304688 L 183.496094 -0.191406 L 374.945312 191.257812 L 191.449219 374.753906 Z M 0 183.304688 "/></clipPath><clipPath id="4b1230c243"><path d="M 0 183.304688 L 183.496094 -0.191406 L 374.945312 191.257812 L 191.449219 374.753906 Z M 0 183.304688 "/></clipPath><clipPath id="6f7e6862bf"><path d="M 0 183.304688 L 183.496094 -0.191406 L 374.945312 191.257812 L 191.449219 374.753906 Z M 0 183.304688 "/></clipPath><clipPath id="45b559912f"><path d="M 159 223 L 205 223 L 205 250 L 159 250 Z M 159 223 "/></clipPath><clipPath id="f276bd94aa"><path d="M 0 183.304688 L 183.496094 -0.191406 L 374.945312 191.257812 L 191.449219 374.753906 Z M 0 183.304688 "/></clipPath><clipPath id="7ff7f8846c"><path d="M 0 183.304688 L 183.496094 -0.191406 L 374.945312 191.257812 L 191.449219 374.753906 Z M 0 183.304688 "/></clipPath><clipPath id="c294a1e410"><path d="M 0 183.304688 L 183.496094 -0.191406 L 374.945312 191.257812 L 191.449219 374.753906 Z M 0 183.304688 "/></clipPath><clipPath id="9c112c32ac"><path d="M 92 152 L 149 152 L 149 273 L 92 273 Z M 92 152 "/></clipPath><clipPath id="25545c073a"><path d="M 0 183.304688 L 183.496094 -0.191406 L 374.945312 191.257812 L 191.449219 374.753906 Z M 0 183.304688 "/></clipPath><clipPath id="f6b23fa6d3"><path d="M 0 183.304688 L 183.496094 -0.191406 L 374.945312 191.257812 L 191.449219 374.753906 Z M 0 183.304688 "/></clipPath><clipPath id="6439cee3ba"><path d="M 0 183.304688 L 183.496094 -0.191406 L 374.945312 191.257812 L 191.449219 374.753906 Z M 0 183.304688 "/></clipPath><clipPath id="41f10f4ee5"><path d="M 225 152 L 283 152 L 283 273 L 225 273 Z M 225 152 "/></clipPath><clipPath id="a49b81e52a"><path d="M 0 183.304688 L 183.496094 -0.191406 L 374.945312 191.257812 L 191.449219 374.753906 Z M 0 183.304688 "/></clipPath><clipPath id="611da26e9a"><path d="M 0 183.304688 L 183.496094 -0.191406 L 374.945312 191.257812 L 191.449219 374.753906 Z M 0 183.304688 "/></clipPath><clipPath id="1356df6eec"><path d="M 0 183.304688 L 183.496094 -0.191406 L 374.945312 191.257812 L 191.449219 374.753906 Z M 0 183.304688 "/></clipPath><clipPath id="f750ed080d"><path d="M 157 81 L 218 81 L 218 143 L 157 143 Z M 157 81 "/></clipPath><clipPath id="442bf241ec"><path d="M 0 183.304688 L 183.496094 -0.191406 L 374.945312 191.257812 L 191.449219 374.753906 Z M 0 183.304688 "/></clipPath><clipPath id="f8030834af"><path d="M 0 183.304688 L 183.496094 -0.191406 L 374.945312 191.257812 L 191.449219 374.753906 Z M 0 183.304688 "/></clipPath><clipPath id="4bac2e1891"><path d="M 0 183.304688 L 183.496094 -0.191406 L 374.945312 191.257812 L 191.449219 374.753906 Z M 0 183.304688 "/></clipPath><clipPath id="7543b7da13"><path d="M 157 82 L 207 82 L 207 143 L 157 143 Z M 157 82 "/></clipPath><clipPath id="2f5732643e"><path d="M 0 183.304688 L 183.496094 -0.191406 L 374.945312 191.257812 L 191.449219 374.753906 Z M 0 183.304688 "/></clipPath><clipPath id="42d7d9ed98"><path d="M 0 183.304688 L 183.496094 -0.191406 L 374.945312 191.257812 L 191.449219 374.753906 Z M 0 183.304688 "/></clipPath><clipPath id="14f0df49eb"><path d="M 0 183.304688 L 183.496094 -0.191406 L 374.945312 191.257812 L 191.449219 374.753906 Z M 0 183.304688 "/></clipPath><clipPath id="cef1e13085"><path d="M 146 11 L 229 11 L 229 62 L 146 62 Z M 146 11 "/></clipPath><clipPath id="bc9a9436da"><path d="M 0 183.304688 L 183.496094 -0.191406 L 374.945312 191.257812 L 191.449219 374.753906 Z M 0 183.304688 "/></clipPath><clipPath id="6cec28e8b1"><path d="M 0 183.304688 L 183.496094 -0.191406 L 374.945312 191.257812 L 191.449219 374.753906 Z M 0 183.304688 "/></clipPath><clipPath id="b5e43386b9"><path d="M 0 183.304688 L 183.496094 -0.191406 L 374.945312 191.257812 L 191.449219 374.753906 Z M 0 183.304688 "/></clipPath><clipPath id="d5f4227811"><path d="M 146 18 L 215 18 L 215 62 L 146 62 Z M 146 18 "/></clipPath><clipPath id="3e2ecb42db"><path d="M 0 183.304688 L 183.496094 -0.191406 L 374.945312 191.257812 L 191.449219 374.753906 Z M 0 183.304688 "/></clipPath><clipPath id="fc314b7228"><path d="M 0 183.304688 L 183.496094 -0.191406 L 374.945312 191.257812 L 191.449219 374.753906 Z M 0 183.304688 "/></clipPath><clipPath id="8188893f79"><path d="M 0 183.304688 L 183.496094 -0.191406 L 374.945312 191.257812 L 191.449219 374.753906 Z M 0 183.304688 "/></clipPath><clipPath id="ec48218e92"><path d="M 157 272 L 218 272 L 218 364 L 157 364 Z M 157 272 "/></clipPath><clipPath id="2de2f4a44b"><path d="M 0 183.304688 L 183.496094 -0.191406 L 374.945312 191.257812 L 191.449219 374.753906 Z M 0 183.304688 "/></clipPath><clipPath id="609d1c4391"><path d="M 0 183.304688 L 183.496094 -0.191406 L 374.945312 191.257812 L 191.449219 374.753906 Z M 0 183.304688 "/></clipPath><clipPath id="112ddfbe7c"><path d="M 0 183.304688 L 183.496094 -0.191406 L 374.945312 191.257812 L 191.449219 374.753906 Z M 0 183.304688 "/></clipPath><clipPath id="a4ee28dcbe"><path d="M 177 292 L 198 292 L 198 326 L 177 326 Z M 177 292 "/></clipPath><clipPath id="66d42974ef"><path d="M 0 183.304688 L 183.496094 -0.191406 L 374.945312 191.257812 L 191.449219 374.753906 Z M 0 183.304688 "/></clipPath><clipPath id="9b526c6a31"><path d="M 0 183.304688 L 183.496094 -0.191406 L 374.945312 191.257812 L 191.449219 374.753906 Z M 0 183.304688 "/></clipPath><clipPath id="10e8c7d7e0"><path d="M 0 183.304688 L 183.496094 -0.191406 L 374.945312 191.257812 L 191.449219 374.753906 Z M 0 183.304688 "/></clipPath><clipPath id="a4c99b5b02"><path d="M 70 105 L 99 105 L 99 135 L 70 135 Z M 70 105 "/></clipPath><clipPath id="ceb9fb478e"><path d="M 0 183.304688 L 183.496094 -0.191406 L 374.945312 191.257812 L 191.449219 374.753906 Z M 0 183.304688 "/></clipPath><clipPath id="cb60e84542"><path d="M 0 183.304688 L 183.496094 -0.191406 L 374.945312 191.257812 L 191.449219 374.753906 Z M 0 183.304688 "/></clipPath><clipPath id="df41112484"><path d="M 0 183.304688 L 183.496094 -0.191406 L 374.945312 191.257812 L 191.449219 374.753906 Z M 0 183.304688 "/></clipPath><clipPath id="6c5080f85b"><path d="M 318 197 L 348 197 L 348 227 L 318 227 Z M 318 197 "/></clipPath><clipPath id="fd13fc8b62"><path d="M 0 183.304688 L 183.496094 -0.191406 L 374.945312 191.257812 L 191.449219 374.753906 Z M 0 183.304688 "/></clipPath><clipPath id="1b39dcf5a0"><path d="M 0 183.304688 L 183.496094 -0.191406 L 374.945312 191.257812 L 191.449219 374.753906 Z M 0 183.304688 "/></clipPath><clipPath id="58962bd838"><path d="M 0 183.304688 L 183.496094 -0.191406 L 374.945312 191.257812 L 191.449219 374.753906 Z M 0 183.304688 "/></clipPath><clipPath id="ba2a6456e7"><path d="M 52 180 L 67 180 L 67 195 L 52 195 Z M 52 180 "/></clipPath><clipPath id="8b9f737f3b"><path d="M 0 183.304688 L 183.496094 -0.191406 L 374.945312 191.257812 L 191.449219 374.753906 Z M 0 183.304688 "/></clipPath><clipPath id="522510a7ea"><path d="M 0 183.304688 L 183.496094 -0.191406 L 374.945312 191.257812 L 191.449219 374.753906 Z M 0 183.304688 "/></clipPath><clipPath id="6fc28fe36b"><path d="M 0 183.304688 L 183.496094 -0.191406 L 374.945312 191.257812 L 191.449219 374.753906 Z M 0 183.304688 "/></clipPath><clipPath id="2cf0721f8c"><path d="M 297 126 L 312 126 L 312 142 L 297 142 Z M 297 126 "/></clipPath><clipPath id="0c54b37dec"><path d="M 0 183.304688 L 183.496094 -0.191406 L 374.945312 191.257812 L 191.449219 374.753906 Z M 0 183.304688 "/></clipPath><clipPath id="786c2801f5"><path d="M 0 183.304688 L 183.496094 -0.191406 L 374.945312 191.257812 L 191.449219 374.753906 Z M 0 183.304688 "/></clipPath><clipPath id="a4fb4f8217"><path d="M 0 183.304688 L 183.496094 -0.191406 L 374.945312 191.257812 L 191.449219 374.753906 Z M 0 183.304688 "/></clipPath><clipPath id="d39f2b85f9"><path d="M 119 290 L 135 290 L 135 305 L 119 305 Z M 119 290 "/></clipPath><clipPath id="0dc65fb658"><path d="M 0 183.304688 L 183.496094 -0.191406 L 374.945312 191.257812 L 191.449219 374.753906 Z M 0 183.304688 "/></clipPath><clipPath id="2fd632b320"><path d="M 0 183.304688 L 183.496094 -0.191406 L 374.945312 191.257812 L 191.449219 374.753906 Z M 0 183.304688 "/></clipPath><clipPath id="71c9b50056"><path d="M 0 183.304688 L 183.496094 -0.191406 L 374.945312 191.257812 L 191.449219 374.753906 Z M 0 183.304688 "/></clipPath><clipPath id="41c42cad41"><path d="M 236 279 L 252 279 L 252 294 L 236 294 Z M 236 279 "/></clipPath><clipPath id="9bf2331bb6"><path d="M 0 183.304688 L 183.496094 -0.191406 L 374.945312 191.257812 L 191.449219 374.753906 Z M 0 183.304688 "/></clipPath><clipPath id="3310b6ccff"><path d="M 0 183.304688 L 183.496094 -0.191406 L 374.945312 191.257812 L 191.449219 374.753906 Z M 0 183.304688 "/></clipPath><clipPath id="b7a712bdae"><path d="M 0 183.304688 L 183.496094 -0.191406 L 374.945312 191.257812 L 191.449219 374.753906 Z M 0 183.304688 "/></clipPath><clipPath id="3c71b8c27c"><path d="M 87 6 L 288 6 L 288 278 L 87 278 Z M 87 6 "/></clipPath><clipPath id="76415b91d0"><path d="M 0 183.304688 L 183.496094 -0.191406 L 374.945312 191.257812 L 191.449219 374.753906 Z M 0 183.304688 "/></clipPath><clipPath id="30f2af9a79"><path d="M 0 183.304688 L 183.496094 -0.191406 L 374.945312 191.257812 L 191.449219 374.753906 Z M 0 183.304688 "/></clipPath><clipPath id="4ce8d09b7d"><path d="M 0 183.304688 L 183.496094 -0.191406 L 374.945312 191.257812 L 191.449219 374.753906 Z M 0 183.304688 "/></clipPath><clipPath id="52fab3411f"><path d="M 6.648438 184.753906 L 187.539062 3.859375 L 368.0625 184.378906 L 187.167969 365.273438 Z M 6.648438 184.753906 "/></clipPath><clipPath id="c44142d977"><path d="M 155 195 L 169 195 L 169 210 L 155 210 Z M 155 195 "/></clipPath><clipPath id="3baeeb2faa"><path d="M 0 183.304688 L 183.496094 -0.191406 L 374.945312 191.257812 L 191.449219 374.753906 Z M 0 183.304688 "/></clipPath><clipPath id="4ffa481c50"><path d="M 0 183.304688 L 183.496094 -0.191406 L 374.945312 191.257812 L 191.449219 374.753906 Z M 0 183.304688 "/></clipPath><clipPath id="192656b803"><path d="M 0 183.304688 L 183.496094 -0.191406 L 374.945312 191.257812 L 191.449219 374.753906 Z M 0 183.304688 "/></clipPath><clipPath id="8e5c5c4123"><path d="M 142 137 L 162 137 L 162 190 L 142 190 Z M 142 137 "/></clipPath><clipPath id="e83efc40c7"><path d="M 0 183.304688 L 183.496094 -0.191406 L 374.945312 191.257812 L 191.449219 374.753906 Z M 0 183.304688 "/></clipPath><clipPath id="f00eef69fa"><path d="M 0 183.304688 L 183.496094 -0.191406 L 374.945312 191.257812 L 191.449219 374.753906 Z M 0 183.304688 "/></clipPath><clipPath id="1a3102baab"><path d="M 0 183.304688 L 183.496094 -0.191406 L 374.945312 191.257812 L 191.449219 374.753906 Z M 0 183.304688 "/></clipPath><clipPath id="8f4c705fef"><path d="M 152 76 L 223 76 L 223 148 L 152 148 Z M 152 76 "/></clipPath><clipPath id="6ca9c4c246"><path d="M 0 183.304688 L 183.496094 -0.191406 L 374.945312 191.257812 L 191.449219 374.753906 Z M 0 183.304688 "/></clipPath><clipPath id="fe86ce2e0c"><path d="M 0 183.304688 L 183.496094 -0.191406 L 374.945312 191.257812 L 191.449219 374.753906 Z M 0 183.304688 "/></clipPath><clipPath id="bfaf5afecf"><path d="M 0 183.304688 L 183.496094 -0.191406 L 374.945312 191.257812 L 191.449219 374.753906 Z M 0 183.304688 "/></clipPath><clipPath id="82f7f1a32d"><path d="M 152 267 L 223 267 L 223 369 L 152 369 Z M 152 267 "/></clipPath><clipPath id="7e8ffbe776"><path d="M 0 183.304688 L 183.496094 -0.191406 L 374.945312 191.257812 L 191.449219 374.753906 Z M 0 183.304688 "/></clipPath><clipPath id="2ce8510497"><path d="M 0 183.304688 L 183.496094 -0.191406 L 374.945312 191.257812 L 191.449219 374.753906 Z M 0 183.304688 "/></clipPath><clipPath id="3a45c2f04b"><path d="M 0 183.304688 L 183.496094 -0.191406 L 374.945312 191.257812 L 191.449219 374.753906 Z M 0 183.304688 "/></clipPath><clipPath id="9b290a6cd7"><path d="M 172 287 L 203 287 L 203 331 L 172 331 Z M 172 287 "/></clipPath><clipPath id="a737d28ba6"><path d="M 0 183.304688 L 183.496094 -0.191406 L 374.945312 191.257812 L 191.449219 374.753906 Z M 0 183.304688 "/></clipPath><clipPath id="f79f06d364"><path d="M 0 183.304688 L 183.496094 -0.191406 L 374.945312 191.257812 L 191.449219 374.753906 Z M 0 183.304688 "/></clipPath><clipPath id="a19779e7da"><path d="M 0 183.304688 L 183.496094 -0.191406 L 374.945312 191.257812 L 191.449219 374.753906 Z M 0 183.304688 "/></clipPath><clipPath id="59fa9d3d7e"><path d="M 70 105 L 99 105 L 99 135 L 70 135 Z M 70 105 "/></clipPath><clipPath id="5d420fe2f8"><path d="M 0 183.304688 L 183.496094 -0.191406 L 374.945312 191.257812 L 191.449219 374.753906 Z M 0 183.304688 "/></clipPath><clipPath id="81c2286a0f"><path d="M 0 183.304688 L 183.496094 -0.191406 L 374.945312 191.257812 L 191.449219 374.753906 Z M 0 183.304688 "/></clipPath><clipPath id="66662bf011"><path d="M 0 183.304688 L 183.496094 -0.191406 L 374.945312 191.257812 L 191.449219 374.753906 Z M 0 183.304688 "/></clipPath><clipPath id="2df3249ccb"><path d="M 318 197 L 348 197 L 348 227 L 318 227 Z M 318 197 "/></clipPath><clipPath id="413c92761e"><path d="M 0 183.304688 L 183.496094 -0.191406 L 374.945312 191.257812 L 191.449219 374.753906 Z M 0 183.304688 "/></clipPath><clipPath id="a9b6aaca56"><path d="M 0 183.304688 L 183.496094 -0.191406 L 374.945312 191.257812 L 191.449219 374.753906 Z M 0 183.304688 "/></clipPath><clipPath id="68294f5e1b"><path d="M 0 183.304688 L 183.496094 -0.191406 L 374.945312 191.257812 L 191.449219 374.753906 Z M 0 183.304688 "/></clipPath><clipPath id="98662557e7"><path d="M 52 180 L 67 180 L 67 195 L 52 195 Z M 52 180 "/></clipPath><clipPath id="56a213beaa"><path d="M 0 183.304688 L 183.496094 -0.191406 L 374.945312 191.257812 L 191.449219 374.753906 Z M 0 183.304688 "/></clipPath><clipPath id="f1cccfea69"><path d="M 0 183.304688 L 183.496094 -0.191406 L 374.945312 191.257812 L 191.449219 374.753906 Z M 0 183.304688 "/></clipPath><clipPath id="08546db370"><path d="M 0 183.304688 L 183.496094 -0.191406 L 374.945312 191.257812 L 191.449219 374.753906 Z M 0 183.304688 "/></clipPath><clipPath id="1e28868a77"><path d="M 297 126 L 312 126 L 312 142 L 297 142 Z M 297 126 "/></clipPath><clipPath id="f4f3520e9f"><path d="M 0 183.304688 L 183.496094 -0.191406 L 374.945312 191.257812 L 191.449219 374.753906 Z M 0 183.304688 "/></clipPath><clipPath id="d41018e1e1"><path d="M 0 183.304688 L 183.496094 -0.191406 L 374.945312 191.257812 L 191.449219 374.753906 Z M 0 183.304688 "/></clipPath><clipPath id="914ac104e0"><path d="M 0 183.304688 L 183.496094 -0.191406 L 374.945312 191.257812 L 191.449219 374.753906 Z M 0 183.304688 "/></clipPath><clipPath id="cf7da6fe1a"><path d="M 119 290 L 135 290 L 135 305 L 119 305 Z M 119 290 "/></clipPath><clipPath id="e8078028fc"><path d="M 0 183.304688 L 183.496094 -0.191406 L 374.945312 191.257812 L 191.449219 374.753906 Z M 0 183.304688 "/></clipPath><clipPath id="39400e7dba"><path d="M 0 183.304688 L 183.496094 -0.191406 L 374.945312 191.257812 L 191.449219 374.753906 Z M 0 183.304688 "/></clipPath><clipPath id="9b0001dce1"><path d="M 0 183.304688 L 183.496094 -0.191406 L 374.945312 191.257812 L 191.449219 374.753906 Z M 0 183.304688 "/></clipPath><clipPath id="54aa5f092a"><path d="M 236 279 L 252 279 L 252 294 L 236 294 Z M 236 279 "/></clipPath><clipPath id="5ea76e737d"><path d="M 0 183.304688 L 183.496094 -0.191406 L 374.945312 191.257812 L 191.449219 374.753906 Z M 0 183.304688 "/></clipPath><clipPath id="e260ed1dbd"><path d="M 0 183.304688 L 183.496094 -0.191406 L 374.945312 191.257812 L 191.449219 374.753906 Z M 0 183.304688 "/></clipPath><clipPath id="14947d1f51"><path d="M 0 183.304688 L 183.496094 -0.191406 L 374.945312 191.257812 L 191.449219 374.753906 Z M 0 183.304688 "/></clipPath></defs><g id="76ae5fc1e9"><g clip-rule="nonzero" clip-path="url(#c8a1ed9e05)"><g clip-rule="nonzero" clip-path="url(#3a230d71ab)"><g clip-rule="nonzero" clip-path="url(#fa75250bfa)"><g clip-rule="nonzero" clip-path="url(#727125c8a3)"><path style=" stroke:none;fill-rule:nonzero;fill:#d8d4d3;fill-opacity:1;" d="M 228.246094 61.847656 C 239.011719 81 247.71875 104.914062 247.6875 132.101562 C 247.679688 138.632812 247.171875 145.378906 246.207031 152.160156 C 243.023438 175.410156 234.972656 199.058594 225.792969 217.457031 C 223.054688 223.03125 220.175781 228.113281 217.328125 232.515625 C 216.691406 232.089844 216.089844 231.773438 215.449219 231.417969 C 213.535156 230.285156 211.582031 229.257812 209.597656 228.410156 C 202.644531 225.292969 195.15625 223.632812 187.347656 223.640625 C 177.265625 223.652344 167.714844 226.46875 159.226562 231.480469 C 158.589844 231.839844 157.984375 232.160156 157.34375 232.585938 C 154.511719 228.1875 151.640625 223.113281 148.914062 217.546875 C 139.777344 199.171875 131.78125 175.539062 128.648438 152.292969 C 127.699219 145.515625 127.210938 138.773438 127.21875 132.242188 C 127.25 105.054688 136.007812 81.121094 146.820312 61.941406 C 156.78125 44.183594 168.507812 30.398438 176.859375 21.832031 C 183.253906 15.226562 187.589844 11.671875 187.589844 11.671875 C 187.589844 11.671875 210.710938 30.457031 228.246094 61.847656 "/></g></g></g></g><g clip-rule="nonzero" clip-path="url(#0bdbc307ea)"><g clip-rule="nonzero" clip-path="url(#feae9b2a02)"><g clip-rule="nonzero" clip-path="url(#9be8f5d98c)"><g clip-rule="nonzero" clip-path="url(#2a6dcdc1b5)"><path style=" stroke:none;fill-rule:nonzero;fill:#e4e4e3;fill-opacity:1;" d="M 214.039062 68.964844 C 224.804688 88.117188 233.511719 112.027344 233.480469 139.21875 C 233.472656 145.75 232.96875 152.496094 232 159.273438 C 228.816406 182.527344 220.765625 206.175781 211.589844 224.574219 C 210.914062 225.886719 210.273438 227.164062 209.597656 228.410156 C 202.644531 225.292969 195.15625 223.632812 187.347656 223.640625 C 177.265625 223.652344 167.714844 226.46875 159.226562 231.480469 C 158.589844 231.839844 157.984375 232.160156 157.34375 232.585938 C 154.511719 228.1875 151.640625 223.113281 148.914062 217.546875 C 139.777344 199.171875 131.78125 175.539062 128.648438 152.292969 C 127.699219 145.515625 127.210938 138.773438 127.21875 132.242188 C 127.25 105.054688 136.007812 81.121094 146.820312 61.941406 C 156.78125 44.183594 168.507812 30.398438 176.859375 21.832031 C 183.949219 28.285156 200.613281 44.949219 214.039062 68.964844 "/></g></g></g></g><g clip-rule="nonzero" clip-path="url(#ae6a014039)"><g clip-rule="nonzero" clip-path="url(#49ab4394c3)"><g clip-rule="nonzero" clip-path="url(#b519921668)"><g clip-rule="nonzero" clip-path="url(#a6cb32c392)"><path style=" stroke:none;fill-rule:nonzero;fill:#f5f6f5;fill-opacity:1;" d="M 168.894531 205.339844 L 159.664062 209.308594 C 158.222656 205.945312 156.828125 202.457031 155.496094 198.878906 L 164.90625 195.367188 C 166.175781 198.785156 167.519531 202.121094 168.894531 205.339844 "/></g></g></g></g><g clip-rule="nonzero" clip-path="url(#947938208c)"><g clip-rule="nonzero" clip-path="url(#cbadfd8764)"><g clip-rule="nonzero" clip-path="url(#cf8831133d)"><g clip-rule="nonzero" clip-path="url(#a598df00bc)"><path style=" stroke:none;fill-rule:nonzero;fill:#f5f6f5;fill-opacity:1;" d="M 161.710938 186.175781 L 152.164062 189.285156 C 148.167969 176.941406 145.339844 164.726562 143.753906 152.957031 L 143.246094 149.476562 C 142.636719 145.347656 142.265625 142.851562 142.269531 137.222656 L 152.308594 137.210938 C 152.300781 142.09375 152.578125 143.9375 153.179688 147.980469 L 153.699219 151.566406 C 155.210938 162.769531 157.90625 174.402344 161.710938 186.175781 "/></g></g></g></g><g clip-rule="nonzero" clip-path="url(#28239fca0a)"><g clip-rule="nonzero" clip-path="url(#5640ace152)"><g clip-rule="nonzero" clip-path="url(#4b1230c243)"><g clip-rule="nonzero" clip-path="url(#6f7e6862bf)"><path style=" stroke:none;fill-rule:nonzero;fill:#e91c45;fill-opacity:1;" d="M 215.449219 231.417969 L 207.402344 252.582031 L 167.222656 252.628906 L 165.878906 249.078125 L 159.226562 231.480469 C 167.714844 226.46875 177.265625 223.652344 187.347656 223.640625 C 191.320312 223.636719 195.261719 224.09375 199.023438 224.941406 C 204.84375 226.214844 210.304688 228.40625 215.449219 231.417969 "/></g></g></g></g><g clip-rule="nonzero" clip-path="url(#45b559912f)"><g clip-rule="nonzero" clip-path="url(#f276bd94aa)"><g clip-rule="nonzero" clip-path="url(#7ff7f8846c)"><g clip-rule="nonzero" clip-path="url(#c294a1e410)"><path style=" stroke:none;fill-rule:nonzero;fill:#ee205c;fill-opacity:1;" d="M 204.804688 227.878906 L 196.761719 249.046875 L 165.878906 249.078125 L 159.226562 231.480469 C 167.714844 226.46875 177.265625 223.652344 187.347656 223.640625 C 191.320312 223.636719 195.261719 224.09375 199.023438 224.941406 C 201.011719 225.789062 202.925781 226.78125 204.804688 227.878906 "/></g></g></g></g><g clip-rule="nonzero" clip-path="url(#9c112c32ac)"><g clip-rule="nonzero" clip-path="url(#25545c073a)"><g clip-rule="nonzero" clip-path="url(#f6b23fa6d3)"><g clip-rule="nonzero" clip-path="url(#6439cee3ba)"><path style=" stroke:none;fill-rule:nonzero;fill:#e91c45;fill-opacity:1;" d="M 148.902344 217.527344 L 127.117188 217.554688 L 101.957031 272.796875 L 92.015625 187.476562 L 127.195312 152.296875 L 128.648438 152.296875 C 131.785156 175.535156 139.789062 199.167969 148.902344 217.527344 "/></g></g></g></g><g clip-rule="nonzero" clip-path="url(#41f10f4ee5)"><g clip-rule="nonzero" clip-path="url(#a49b81e52a)"><g clip-rule="nonzero" clip-path="url(#611da26e9a)"><g clip-rule="nonzero" clip-path="url(#1356df6eec)"><path style=" stroke:none;fill-rule:nonzero;fill:#e91c45;fill-opacity:1;" d="M 282.761719 187.257812 L 272.625 272.601562 L 247.589844 217.414062 L 225.804688 217.4375 C 234.960938 199.058594 243.019531 175.40625 246.207031 152.160156 L 247.664062 152.160156 L 282.761719 187.257812 "/></g></g></g></g><g clip-rule="nonzero" clip-path="url(#f750ed080d)"><g clip-rule="nonzero" clip-path="url(#442bf241ec)"><g clip-rule="nonzero" clip-path="url(#f8030834af)"><g clip-rule="nonzero" clip-path="url(#4bac2e1891)"><path style=" stroke:none;fill-rule:nonzero;fill:#52c6ed;fill-opacity:1;" d="M 217.609375 112.046875 C 217.589844 128.660156 204.089844 142.164062 187.4375 142.21875 C 186.304688 142.21875 185.238281 142.148438 184.175781 142.007812 C 169.058594 140.390625 157.324219 127.59375 157.339844 112.117188 C 157.394531 98.027344 167.058594 86.230469 180.089844 82.914062 C 182.433594 82.273438 184.953125 81.949219 187.511719 81.949219 C 204.121094 81.929688 217.59375 95.402344 217.609375 112.046875 "/></g></g></g></g><g clip-rule="nonzero" clip-path="url(#7543b7da13)"><g clip-rule="nonzero" clip-path="url(#2f5732643e)"><g clip-rule="nonzero" clip-path="url(#42d7d9ed98)"><g clip-rule="nonzero" clip-path="url(#14f0df49eb)"><path style=" stroke:none;fill-rule:nonzero;fill:#5fcbe7;fill-opacity:1;" d="M 206.925781 112.804688 C 206.945312 126.898438 197.242188 138.726562 184.175781 142.007812 C 169.058594 140.390625 157.324219 127.59375 157.339844 112.117188 C 157.394531 98.027344 167.058594 86.230469 180.089844 82.914062 C 195.242188 84.496094 206.976562 97.296875 206.925781 112.804688 "/></g></g></g></g><g clip-rule="nonzero" clip-path="url(#cef1e13085)"><g clip-rule="nonzero" clip-path="url(#bc9a9436da)"><g clip-rule="nonzero" clip-path="url(#6cec28e8b1)"><g clip-rule="nonzero" clip-path="url(#b5e43386b9)"><path style=" stroke:none;fill-rule:nonzero;fill:#e91c45;fill-opacity:1;" d="M 228.246094 61.847656 L 146.820312 61.941406 C 158.308594 41.375 172.242188 26.167969 180.449219 18.175781 C 184.816406 13.945312 187.589844 11.671875 187.589844 11.671875 C 187.589844 11.671875 210.710938 30.457031 228.246094 61.847656 "/></g></g></g></g><g clip-rule="nonzero" clip-path="url(#d5f4227811)"><g clip-rule="nonzero" clip-path="url(#3e2ecb42db)"><g clip-rule="nonzero" clip-path="url(#fc314b7228)"><g clip-rule="nonzero" clip-path="url(#8188893f79)"><path style=" stroke:none;fill-rule:nonzero;fill:#ee205c;fill-opacity:1;" d="M 214.046875 61.863281 L 146.820312 61.941406 C 158.308594 41.375 172.242188 26.167969 180.449219 18.175781 C 188.675781 26.113281 202.570312 41.289062 214.046875 61.863281 "/></g></g></g></g><g clip-rule="nonzero" clip-path="url(#ec48218e92)"><g clip-rule="nonzero" clip-path="url(#2de2f4a44b)"><g clip-rule="nonzero" clip-path="url(#609d1c4391)"><g clip-rule="nonzero" clip-path="url(#112ddfbe7c)"><path style=" stroke:none;fill-rule:nonzero;fill:#f14621;fill-opacity:1;" d="M 217.375 302.78125 C 217.355469 319.417969 187.1875 363.054688 187.1875 363.054688 C 187.1875 363.054688 157.117188 319.484375 157.136719 302.851562 C 157.15625 286.21875 170.65625 272.71875 187.292969 272.699219 C 203.925781 272.679688 217.394531 286.148438 217.375 302.78125 "/></g></g></g></g><g clip-rule="nonzero" clip-path="url(#a4ee28dcbe)"><g clip-rule="nonzero" clip-path="url(#66d42974ef)"><g clip-rule="nonzero" clip-path="url(#9b526c6a31)"><g clip-rule="nonzero" clip-path="url(#10e8c7d7e0)"><path style=" stroke:none;fill-rule:nonzero;fill:#f25a48;fill-opacity:1;" d="M 187.222656 325.066406 C 181.523438 314.796875 177.585938 306.160156 177.199219 302.46875 C 177.222656 299.210938 179.0625 296.828125 180.164062 295.730469 C 181.265625 294.628906 183.652344 292.78125 187.269531 292.777344 C 192.804688 292.773438 197.300781 297.269531 197.296875 302.804688 C 196.917969 306.238281 192.929688 314.835938 187.222656 325.066406 "/></g></g></g></g><g clip-rule="nonzero" clip-path="url(#a4c99b5b02)"><g clip-rule="nonzero" clip-path="url(#ceb9fb478e)"><g clip-rule="nonzero" clip-path="url(#cb60e84542)"><g clip-rule="nonzero" clip-path="url(#df41112484)"><path style=" stroke:none;fill-rule:nonzero;fill:#f68714;fill-opacity:1;" d="M 98.722656 127.128906 L 91.613281 134.234375 L 70.34375 112.964844 L 77.449219 105.855469 L 98.722656 127.128906 "/><path style=" stroke:none;fill-rule:nonzero;fill:#f68714;fill-opacity:1;" d="M 98.738281 112.929688 L 77.417969 134.25 L 70.328125 127.160156 L 91.648438 105.839844 L 98.738281 112.929688 "/></g></g></g></g><g clip-rule="nonzero" clip-path="url(#6c5080f85b)"><g clip-rule="nonzero" clip-path="url(#fd13fc8b62)"><g clip-rule="nonzero" clip-path="url(#1b39dcf5a0)"><g clip-rule="nonzero" clip-path="url(#58962bd838)"><path style=" stroke:none;fill-rule:nonzero;fill:#f68714;fill-opacity:1;" d="M 347.074219 219.128906 L 339.96875 226.234375 L 318.699219 204.960938 L 325.804688 197.855469 L 347.074219 219.128906 "/><path style=" stroke:none;fill-rule:nonzero;fill:#f68714;fill-opacity:1;" d="M 347.089844 204.929688 L 325.769531 226.25 L 318.679688 219.160156 L 340.003906 197.839844 L 347.089844 204.929688 "/></g></g></g></g><g clip-rule="nonzero" clip-path="url(#ba2a6456e7)"><g clip-rule="nonzero" clip-path="url(#8b9f737f3b)"><g clip-rule="nonzero" clip-path="url(#522510a7ea)"><g clip-rule="nonzero" clip-path="url(#6fc28fe36b)"><path style=" stroke:none;fill-rule:nonzero;fill:#f68714;fill-opacity:1;" d="M 66.707031 187.503906 L 59.601562 194.613281 L 52.511719 187.519531 L 59.617188 180.414062 L 66.707031 187.503906 "/></g></g></g></g><g clip-rule="nonzero" clip-path="url(#2cf0721f8c)"><g clip-rule="nonzero" clip-path="url(#0c54b37dec)"><g clip-rule="nonzero" clip-path="url(#786c2801f5)"><g clip-rule="nonzero" clip-path="url(#a4fb4f8217)"><path style=" stroke:none;fill-rule:nonzero;fill:#f68714;fill-opacity:1;" d="M 311.679688 133.984375 L 304.574219 141.089844 L 297.480469 134 L 304.589844 126.890625 L 311.679688 133.984375 "/></g></g></g></g><g clip-rule="nonzero" clip-path="url(#d39f2b85f9)"><g clip-rule="nonzero" clip-path="url(#0dc65fb658)"><g clip-rule="nonzero" clip-path="url(#2fd632b320)"><g clip-rule="nonzero" clip-path="url(#71c9b50056)"><path style=" stroke:none;fill-rule:nonzero;fill:#f68714;fill-opacity:1;" d="M 134.019531 297.460938 L 126.914062 304.566406 L 119.820312 297.476562 L 126.929688 290.367188 L 134.019531 297.460938 "/></g></g></g></g><g clip-rule="nonzero" clip-path="url(#41c42cad41)"><g clip-rule="nonzero" clip-path="url(#9bf2331bb6)"><g clip-rule="nonzero" clip-path="url(#3310b6ccff)"><g clip-rule="nonzero" clip-path="url(#b7a712bdae)"><path style=" stroke:none;fill-rule:nonzero;fill:#f68714;fill-opacity:1;" d="M 251.164062 286.675781 L 244.058594 293.785156 L 236.964844 286.695312 L 244.074219 279.585938 L 251.164062 286.675781 "/></g></g></g></g><g clip-rule="nonzero" clip-path="url(#3c71b8c27c)"><g clip-rule="nonzero" clip-path="url(#76415b91d0)"><g clip-rule="nonzero" clip-path="url(#30f2af9a79)"><g clip-rule="nonzero" clip-path="url(#4ce8d09b7d)"><g clip-rule="nonzero" clip-path="url(#52fab3411f)"><path style=" stroke:none;fill-rule:nonzero;fill:#100f0d;fill-opacity:1;" d="M 242.667969 132.085938 C 242.660156 138.304688 242.179688 144.824219 241.234375 151.488281 C 238.378906 172.300781 231.125 195.523438 221.3125 215.214844 C 219.4375 218.980469 217.53125 222.503906 215.601562 225.738281 C 206.710938 221.019531 197.222656 218.628906 187.351562 218.640625 C 177.4375 218.652344 167.890625 221.085938 159.085938 225.804688 C 157.164062 222.570312 155.261719 219.050781 153.402344 215.289062 C 143.636719 195.625 136.429688 172.414062 133.621094 151.585938 C 132.695312 144.949219 132.226562 138.429688 132.234375 132.210938 C 132.261719 110.34375 138.222656 88.40625 149.847656 66.9375 L 225.207031 66.851562 C 236.78125 88.289062 242.695312 110.214844 242.667969 132.085938 Z M 269.761719 254.140625 L 252.15625 215.332031 C 251.347656 213.542969 249.5625 212.394531 247.59375 212.394531 L 233.722656 212.414062 C 241.011719 196.222656 246.652344 178.324219 249.792969 161.398438 L 277.488281 189.09375 Z M 203.929688 247.582031 L 170.710938 247.621094 L 165.519531 233.898438 C 172.460938 230.511719 179.765625 228.6875 187.339844 228.675781 C 194.875 228.671875 202.144531 230.460938 209.148438 233.855469 Z M 122.554688 215.476562 L 104.859375 254.328125 L 97.285156 189.300781 L 125.042969 161.539062 C 128.148438 178.46875 133.75 196.351562 141 212.519531 L 127.125 212.535156 C 125.15625 212.53125 123.371094 213.6875 122.554688 215.476562 Z M 187.582031 18.359375 C 193.628906 23.90625 207.28125 37.464844 219.417969 56.820312 L 155.660156 56.894531 C 167.835938 37.503906 181.523438 23.914062 187.582031 18.359375 Z M 184.425781 7.785156 C 183.441406 8.582031 160.3125 27.605469 142.453125 59.464844 C 129.039062 83.257812 122.222656 107.738281 122.195312 132.222656 C 122.191406 137.695312 122.609375 143.386719 123.265625 149.136719 L 88.472656 183.929688 C 87.386719 185.015625 86.855469 186.539062 87.03125 188.066406 L 96.964844 273.390625 C 97.226562 275.628906 98.949219 277.417969 101.175781 277.757812 C 102.796875 278.011719 104.390625 277.453125 105.5 276.34375 C 105.914062 275.929688 106.269531 275.429688 106.523438 274.875 L 130.34375 222.566406 L 145.875 222.550781 C 148.257812 227.160156 150.691406 231.503906 153.15625 235.308594 C 153.832031 236.359375 154.894531 237.066406 156.09375 237.386719 L 162.542969 254.429688 C 163.28125 256.378906 165.144531 257.664062 167.230469 257.664062 L 207.382812 257.617188 C 208.742188 257.617188 210.011719 257.066406 210.9375 256.144531 C 211.429688 255.652344 211.824219 255.054688 212.082031 254.375 L 218.558594 237.332031 C 219.425781 237.101562 220.222656 236.679688 220.847656 236.054688 C 221.09375 235.804688 221.316406 235.53125 221.511719 235.230469 C 223.988281 231.421875 226.429688 227.070312 228.824219 222.457031 L 244.351562 222.4375 L 268.054688 274.6875 C 268.984375 276.734375 271.167969 277.914062 273.394531 277.5625 C 274.472656 277.394531 275.4375 276.886719 276.171875 276.148438 C 276.953125 275.371094 277.472656 274.335938 277.613281 273.183594 L 287.746094 187.839844 C 287.925781 186.308594 287.398438 184.785156 286.3125 183.703125 L 251.597656 148.984375 C 252.269531 143.230469 252.699219 137.539062 252.707031 132.074219 C 252.734375 107.585938 245.976562 83.125 232.625 59.367188 C 214.828125 27.550781 191.738281 8.570312 190.761719 7.777344 C 188.921875 6.28125 186.273438 6.285156 184.425781 7.785156 "/></g></g></g></g></g><g clip-rule="nonzero" clip-path="url(#c44142d977)"><g clip-rule="nonzero" clip-path="url(#3baeeb2faa)"><g clip-rule="nonzero" clip-path="url(#4ffa481c50)"><g clip-rule="nonzero" clip-path="url(#192656b803)"><path style=" stroke:none;fill-rule:nonzero;fill:#100f0d;fill-opacity:1;" d="M 159.664062 209.308594 L 168.894531 205.339844 C 167.519531 202.121094 166.175781 198.785156 164.90625 195.367188 L 155.496094 198.878906 C 156.828125 202.457031 158.222656 205.945312 159.664062 209.308594 "/></g></g></g></g><g clip-rule="nonzero" clip-path="url(#8e5c5c4123)"><g clip-rule="nonzero" clip-path="url(#e83efc40c7)"><g clip-rule="nonzero" clip-path="url(#f00eef69fa)"><g clip-rule="nonzero" clip-path="url(#1a3102baab)"><path style=" stroke:none;fill-rule:nonzero;fill:#100f0d;fill-opacity:1;" d="M 143.246094 149.476562 L 143.753906 152.957031 C 145.339844 164.726562 148.167969 176.941406 152.164062 189.285156 L 161.710938 186.175781 C 157.90625 174.402344 155.210938 162.769531 153.699219 151.566406 L 153.179688 147.980469 C 152.578125 143.9375 152.300781 142.09375 152.308594 137.210938 L 142.269531 137.222656 C 142.265625 142.851562 142.636719 145.347656 143.246094 149.476562 "/></g></g></g></g><g clip-rule="nonzero" clip-path="url(#8f4c705fef)"><g clip-rule="nonzero" clip-path="url(#6ca9c4c246)"><g clip-rule="nonzero" clip-path="url(#fe86ce2e0c)"><g clip-rule="nonzero" clip-path="url(#bfaf5afecf)"><path style=" stroke:none;fill-rule:nonzero;fill:#100f0d;fill-opacity:1;" d="M 212.574219 112.039062 C 212.566406 118.742188 209.949219 125.050781 205.199219 129.800781 C 200.457031 134.542969 194.148438 137.160156 187.445312 137.167969 C 180.742188 137.175781 174.441406 134.574219 169.707031 129.839844 C 164.972656 125.105469 162.371094 118.800781 162.375 112.097656 C 162.386719 105.179688 165.203125 98.902344 169.753906 94.351562 C 174.304688 89.804688 180.585938 86.980469 187.503906 86.96875 C 201.34375 86.957031 212.589844 98.203125 212.574219 112.039062 Z M 187.515625 76.933594 C 168.144531 76.957031 152.363281 92.738281 152.335938 112.109375 C 152.324219 121.496094 155.972656 130.316406 162.601562 136.949219 C 169.230469 143.578125 178.050781 147.222656 187.433594 147.207031 C 196.816406 147.199219 205.648438 143.535156 212.292969 136.890625 C 218.9375 130.246094 222.601562 121.414062 222.609375 112.027344 C 222.632812 92.660156 206.886719 76.914062 187.515625 76.933594 "/></g></g></g></g><g clip-rule="nonzero" clip-path="url(#82f7f1a32d)"><g clip-rule="nonzero" clip-path="url(#7e8ffbe776)"><g clip-rule="nonzero" clip-path="url(#2ce8510497)"><g clip-rule="nonzero" clip-path="url(#3a45c2f04b)"><path style=" stroke:none;fill-rule:nonzero;fill:#100f0d;fill-opacity:1;" d="M 212.355469 302.785156 C 212.339844 312.496094 198.28125 337.15625 187.199219 354.058594 C 176.152344 337.183594 162.148438 312.554688 162.15625 302.847656 C 162.164062 295.925781 164.988281 289.648438 169.535156 285.101562 C 174.085938 280.550781 180.367188 277.722656 187.285156 277.71875 C 201.125 277.703125 212.371094 288.949219 212.355469 302.785156 Z M 152.117188 302.855469 C 152.097656 320.550781 179.886719 361.320312 183.054688 365.914062 C 183.988281 367.269531 185.53125 368.078125 187.183594 368.074219 C 188.527344 368.074219 189.800781 367.535156 190.730469 366.601562 C 190.945312 366.390625 191.144531 366.15625 191.3125 365.902344 C 194.492188 361.304688 222.375 320.46875 222.394531 302.773438 C 222.414062 283.40625 206.667969 267.660156 187.296875 267.679688 C 167.925781 267.707031 152.140625 283.480469 152.117188 302.855469 "/></g></g></g></g><g clip-rule="nonzero" clip-path="url(#9b290a6cd7)"><g clip-rule="nonzero" clip-path="url(#a737d28ba6)"><g clip-rule="nonzero" clip-path="url(#f79f06d364)"><g clip-rule="nonzero" clip-path="url(#a19779e7da)"><path style=" stroke:none;fill-rule:nonzero;fill:#100f0d;fill-opacity:1;" d="M 192.269531 302.515625 C 192.011719 303.875 190.675781 307.601562 187.246094 314.378906 C 183.832031 307.558594 182.5 303.726562 182.234375 302.210938 C 182.363281 300.734375 183.386719 299.601562 183.710938 299.277344 C 184.261719 298.722656 185.457031 297.796875 187.265625 297.796875 C 189.929688 297.796875 192.117188 299.882812 192.269531 302.515625 Z M 176.617188 292.183594 C 175.296875 293.507812 172.214844 297.15625 172.183594 302.445312 C 172.179688 302.628906 172.1875 302.8125 172.210938 303 C 172.777344 308.460938 178.300781 319.34375 182.832031 327.511719 C 183.714844 329.101562 185.394531 330.085938 187.21875 330.085938 C 188.566406 330.085938 189.835938 329.542969 190.769531 328.609375 C 191.09375 328.285156 191.375 327.914062 191.605469 327.503906 C 196.160156 319.332031 201.71875 308.511719 202.285156 303.34375 C 202.304688 303.164062 202.316406 302.980469 202.320312 302.796875 C 202.320312 294.496094 195.574219 287.75 187.277344 287.757812 C 181.847656 287.765625 178.269531 290.535156 176.617188 292.183594 "/></g></g></g></g><g clip-rule="nonzero" clip-path="url(#59fa9d3d7e)"><g clip-rule="nonzero" clip-path="url(#5d420fe2f8)"><g clip-rule="nonzero" clip-path="url(#81c2286a0f)"><g clip-rule="nonzero" clip-path="url(#66662bf011)"><path style=" stroke:none;fill-rule:nonzero;fill:#100f0d;fill-opacity:1;" d="M 70.34375 112.964844 L 77.433594 120.054688 L 70.328125 127.160156 L 77.417969 134.25 L 84.523438 127.144531 L 91.613281 134.234375 L 98.722656 127.128906 L 91.628906 120.035156 L 98.738281 112.929688 L 91.648438 105.839844 L 84.539062 112.945312 L 77.449219 105.855469 L 70.34375 112.964844 "/></g></g></g></g><g clip-rule="nonzero" clip-path="url(#2df3249ccb)"><g clip-rule="nonzero" clip-path="url(#413c92761e)"><g clip-rule="nonzero" clip-path="url(#a9b6aaca56)"><g clip-rule="nonzero" clip-path="url(#68294f5e1b)"><path style=" stroke:none;fill-rule:nonzero;fill:#100f0d;fill-opacity:1;" d="M 325.804688 197.855469 L 318.699219 204.960938 L 325.789062 212.054688 L 318.679688 219.160156 L 325.769531 226.25 L 332.878906 219.144531 L 339.96875 226.234375 L 347.074219 219.128906 L 339.984375 212.039062 L 347.089844 204.929688 L 340.003906 197.839844 L 332.894531 204.949219 L 325.804688 197.855469 "/></g></g></g></g><g clip-rule="nonzero" clip-path="url(#98662557e7)"><g clip-rule="nonzero" clip-path="url(#56a213beaa)"><g clip-rule="nonzero" clip-path="url(#f1cccfea69)"><g clip-rule="nonzero" clip-path="url(#08546db370)"><path style=" stroke:none;fill-rule:nonzero;fill:#100f0d;fill-opacity:1;" d="M 52.511719 187.519531 L 59.601562 194.613281 L 66.707031 187.503906 L 59.617188 180.414062 L 52.511719 187.519531 "/></g></g></g></g><g clip-rule="nonzero" clip-path="url(#1e28868a77)"><g clip-rule="nonzero" clip-path="url(#f4f3520e9f)"><g clip-rule="nonzero" clip-path="url(#d41018e1e1)"><g clip-rule="nonzero" clip-path="url(#914ac104e0)"><path style=" stroke:none;fill-rule:nonzero;fill:#100f0d;fill-opacity:1;" d="M 304.574219 141.089844 L 311.679688 133.984375 L 304.589844 126.890625 L 297.480469 134 L 304.574219 141.089844 "/></g></g></g></g><g clip-rule="nonzero" clip-path="url(#cf7da6fe1a)"><g clip-rule="nonzero" clip-path="url(#e8078028fc)"><g clip-rule="nonzero" clip-path="url(#39400e7dba)"><g clip-rule="nonzero" clip-path="url(#9b0001dce1)"><path style=" stroke:none;fill-rule:nonzero;fill:#100f0d;fill-opacity:1;" d="M 119.820312 297.476562 L 126.914062 304.566406 L 134.019531 297.460938 L 126.929688 290.367188 L 119.820312 297.476562 "/></g></g></g></g><g clip-rule="nonzero" clip-path="url(#54aa5f092a)"><g clip-rule="nonzero" clip-path="url(#5ea76e737d)"><g clip-rule="nonzero" clip-path="url(#e260ed1dbd)"><g clip-rule="nonzero" clip-path="url(#14947d1f51)"><path style=" stroke:none;fill-rule:nonzero;fill:#100f0d;fill-opacity:1;" d="M 244.058594 293.785156 L 251.164062 286.675781 L 244.074219 279.585938 L 236.964844 286.695312 L 244.058594 293.785156 "/></g></g></g></g><g style="fill:#000000;fill-opacity:1;"><g transform="translate(185.929521, 228.821316)"><path style="stroke:none" d="M 0.28125 -1.734375 L 0.6875 -1.734375 L 0.65625 -1.53125 C 0.6875 -1.601562 0.726562 -1.65625 0.78125 -1.6875 C 0.84375 -1.726562 0.914062 -1.75 1 -1.75 L 0.921875 -1.40625 C 0.859375 -1.40625 0.789062 -1.394531 0.71875 -1.375 C 0.644531 -1.363281 0.601562 -1.347656 0.59375 -1.328125 L 0.296875 0 L -0.125 0 Z M 0.28125 -1.734375 "/></g></g><g style="fill:#000000;fill-opacity:1;"><g transform="translate(186.739848, 228.821316)"><path style="stroke:none" d="M 0.1875 0.015625 C 0.0820312 0.015625 0.0078125 -0.00390625 -0.03125 -0.046875 C -0.0703125 -0.0976562 -0.0859375 -0.160156 -0.078125 -0.234375 C -0.078125 -0.316406 -0.0625 -0.421875 -0.03125 -0.546875 L 0.140625 -1.328125 C 0.171875 -1.453125 0.222656 -1.550781 0.296875 -1.625 C 0.378906 -1.707031 0.476562 -1.75 0.59375 -1.75 C 0.707031 -1.75 0.785156 -1.710938 0.828125 -1.640625 L 0.921875 -2.03125 L 1.328125 -2.03125 L 0.859375 0 L 0.453125 0 L 0.484375 -0.1875 C 0.441406 -0.113281 0.394531 -0.0625 0.34375 -0.03125 C 0.300781 0 0.25 0.015625 0.1875 0.015625 Z M 0.421875 -0.296875 C 0.460938 -0.296875 0.492188 -0.316406 0.515625 -0.359375 C 0.535156 -0.398438 0.550781 -0.457031 0.5625 -0.53125 L 0.578125 -0.59375 L 0.734375 -1.25 C 0.742188 -1.300781 0.742188 -1.34375 0.734375 -1.375 C 0.734375 -1.40625 0.710938 -1.421875 0.671875 -1.421875 C 0.640625 -1.421875 0.609375 -1.40625 0.578125 -1.375 C 0.554688 -1.34375 0.539062 -1.300781 0.53125 -1.25 L 0.375 -0.515625 C 0.332031 -0.367188 0.347656 -0.296875 0.421875 -0.296875 Z M 0.421875 -0.296875 "/></g></g><g style="fill:#000000;fill-opacity:1;"><g transform="translate(187.912937, 228.821316)"><path style="stroke:none" d="M -0.15625 0 L 0.3125 -2.03125 L 0.734375 -2.03125 L 0.515625 -1.125 L 0.859375 -1.734375 L 1.28125 -1.734375 L 0.84375 -0.984375 L 0.953125 0 L 0.515625 0 L 0.4375 -0.8125 L 0.25 0 Z M -0.15625 0 "/></g></g></g></svg>